<svg width="98" height="19" viewBox="0 0 98 19" fill="none" xmlns="http://www.w3.org/2000/svg">
    <g id="_Rate">
        <g id="star-active 3">
            <path id="Vector_3"
                d="M49.4323 4.3376C49.2978 4.05833 49.0134 3.88062 48.7012 3.88062C48.3889 3.88062 48.1071 4.05833 47.97 4.3376L46.3376 7.6964L42.692 8.23462C42.3873 8.28032 42.1334 8.49358 42.0395 8.78553C41.9456 9.07749 42.0217 9.39992 42.2401 9.61572L44.8854 12.2332L44.2609 15.9322C44.2101 16.2368 44.3371 16.5466 44.5884 16.7268C44.8397 16.9071 45.1723 16.9299 45.4465 16.7852L48.7037 15.0462L51.9609 16.7852C52.2351 16.9299 52.5677 16.9096 52.819 16.7268C53.0703 16.544 53.1973 16.2368 53.1465 15.9322L52.5194 12.2332L55.1648 9.61572C55.3831 9.39992 55.4618 9.07749 55.3654 8.78553C55.2689 8.49358 55.0176 8.28032 54.7129 8.23462L51.0647 7.6964L49.4323 4.3376Z"
                fill="#FF6060" />
        </g>
    </g>
</svg>