<svg width="98" height="19" viewBox="0 0 98 19" fill="none" xmlns="http://www.w3.org/2000/svg">
    <g id="_Rate">
        <g id="star-active 3">
            <path
                d="M89.4323 4.3376C89.2978 4.05833 89.0134 3.88062 88.7012 3.88062C88.3889 3.88062 88.1071 4.05833 87.97 4.3376L86.3376 7.6964L82.692 8.23462C82.3873 8.28032 82.1334 8.49358 82.0395 8.78553C81.9456 9.07749 82.0217 9.39992 82.2401 9.61572L84.8854 12.2332L84.2609 15.9322C84.2101 16.2368 84.3371 16.5466 84.5884 16.7268C84.8397 16.9071 85.1723 16.9299 85.4465 16.7852L88.7037 15.0462L91.9609 16.7852C92.2351 16.9299 92.5677 16.9096 92.819 16.7268C93.0703 16.544 93.1973 16.2368 93.1465 15.9322L92.5194 12.2332L95.1648 9.61572C95.3831 9.39992 95.4618 9.07749 95.3654 8.78553C95.2689 8.49358 95.0176 8.28032 94.7129 8.23462L91.0647 7.6964L89.4323 4.3376Z"
                fill="#E3E3E3" />
        </g>
    </g>
</svg>